# xmcd
#
# Track frame offsets:
#	150
#	23351
#	38581
#	59026
#	76986
#	96829
#	117580
#	133020
#	153723
#	173673
#	192577
#	211869
#	235796
#	256430
#	279674
#	301189
#	316632
#
# Disc length: 4438 seconds
#
# Revision: 0
# Processed by: cddbd v1.5.1PL0 Copyright (c) Steve Scherf et al.
# Submitted via: dBpowerAMP V4.0
#
DISCID=e3115411
DTITLE=Various Artist - Diamond Collection
DYEAR=1999
DGENRE=Blues
TTITLE0=Spice Girls - Viva Forever
TTITLE1=Emilia - Big, Big World
TTITLE2=Mariah Carey and Whitney Houston - When You Believe
TTITLE3=Sarah Brightman - Deliver Me
TTITLE4=Mono - Life In Mono
TTITLE5=Nana - Remember TheTime
TTITLE6=Vacuum - Let The Mountain Come To Me
TTITLE7=Railto - Summer's Over
TTITLE8=Robbie Williams - Angels
TTITLE9=The Corrs - What can I Do
TTITLE10=The Verve - Sonnet
TTITLE11=Lighthouse Famili - Lost In Space
TTITLE12=Natalie Imbruglia - Smoke
TTITLE13=Catatonia - Road Rage
TTITLE14=Manic Street Preachers - If You Tolerate This
TTITLE15=Bryan Adams and Melanie C - When You're Gone
TTITLE16=The Cardigans - My Favourite Game
EXTD=
EXTT0=
EXTT1=
EXTT2=
EXTT3=
EXTT4=
EXTT5=
EXTT6=
EXTT7=
EXTT8=
EXTT9=
EXTT10=
EXTT11=
EXTT12=
EXTT13=
EXTT14=
EXTT15=
EXTT16=
PLAYORDER=
